<svg width="331" height="100" viewBox="0 0 331 100" fill="none" xmlns="http://www.w3.org/2000/svg">
<path d="M35.1211 91.12C28.9984 91.12 23.1371 90.2613 17.5371 88.544C11.9371 86.752 7.4944 84.4747 4.20906 81.712L9.24906 70.4C12.3851 72.864 16.2677 74.9173 20.8971 76.56C25.5264 78.2027 30.2677 79.024 35.1211 79.024C39.2277 79.024 42.5504 78.576 45.0891 77.68C47.6277 76.784 49.4944 75.5893 50.6891 74.096C51.8837 72.528 52.4811 70.7733 52.4811 68.832C52.4811 66.4427 51.6224 64.5387 49.9051 63.12C48.1877 61.6267 45.9477 60.4693 43.1851 59.648C40.4971 58.752 37.4731 57.9307 34.1131 57.184C30.8277 56.4373 27.5051 55.5787 24.1451 54.608C20.8597 53.5627 17.8357 52.256 15.0731 50.688C12.3851 49.0453 10.1824 46.88 8.46506 44.192C6.74773 41.504 5.88906 38.0693 5.88906 33.888C5.88906 29.632 7.00906 25.7493 9.24906 22.24C11.5637 18.656 15.0357 15.8187 19.6651 13.728C24.3691 11.5627 30.3051 10.48 37.4731 10.48C42.1771 10.48 46.8437 11.0773 51.4731 12.272C56.1024 13.4667 60.1344 15.184 63.5691 17.424L58.9771 28.736C55.4677 26.6453 51.8464 25.1147 48.1131 24.144C44.3797 23.0987 40.7957 22.576 37.3611 22.576C33.3291 22.576 30.0437 23.0613 27.5051 24.032C25.0411 25.0027 23.2117 26.272 22.0171 27.84C20.8971 29.408 20.3371 31.2 20.3371 33.216C20.3371 35.6053 21.1584 37.5467 22.8011 39.04C24.5184 40.4587 26.7211 41.5787 29.4091 42.4C32.1717 43.2213 35.2331 44.0427 38.5931 44.864C41.9531 45.6107 45.2757 46.4693 48.5611 47.44C51.9211 48.4107 54.9451 49.68 57.6331 51.248C60.3957 52.816 62.5984 54.944 64.2411 57.632C65.9584 60.32 66.8171 63.7173 66.8171 67.824C66.8171 72.0053 65.6597 75.888 63.3451 79.472C61.1051 82.9813 57.6331 85.8187 52.9291 87.984C48.2251 90.0747 42.2891 91.12 35.1211 91.12ZM105.223 90.784C100.145 90.784 95.6652 89.8507 91.7826 87.984C87.8999 86.0427 84.8759 83.1307 82.7106 79.248C80.5452 75.2907 79.4626 70.3253 79.4626 64.352V30.192H93.4626V62.448C93.4626 67.824 94.6572 71.856 97.0466 74.544C99.5106 77.1573 102.983 78.464 107.463 78.464C110.748 78.464 113.585 77.792 115.975 76.448C118.439 75.104 120.343 73.088 121.687 70.4C123.105 67.712 123.815 64.3893 123.815 60.432V30.192H137.815V90H124.487V73.872L126.839 78.8C124.823 82.6827 121.873 85.6693 117.991 87.76C114.108 89.776 109.852 90.784 105.223 90.784ZM189.297 90.784C184.22 90.784 179.702 89.664 175.745 87.424C171.788 85.184 168.652 81.824 166.337 77.344C164.097 72.7893 162.977 67.04 162.977 60.096C162.977 53.0773 164.134 47.328 166.449 42.848C168.838 38.368 172.012 35.0453 175.969 32.88C180.001 30.64 184.444 29.52 189.297 29.52C195.196 29.52 200.385 30.7893 204.865 33.328C209.42 35.8667 213.004 39.4133 215.617 43.968C218.305 48.5227 219.649 53.8987 219.649 60.096C219.649 66.2933 218.305 71.6693 215.617 76.224C213.004 80.7787 209.42 84.3627 204.865 86.976C200.385 89.5147 195.196 90.784 189.297 90.784ZM156.145 90V6.896H170.145V44.08L169.025 59.984L169.473 75.888V90H156.145ZM187.729 78.8C191.089 78.8 194.076 78.0533 196.689 76.56C199.377 75.0667 201.505 72.9013 203.073 70.064C204.641 67.2267 205.425 63.904 205.425 60.096C205.425 56.2133 204.641 52.8907 203.073 50.128C201.505 47.2907 199.377 45.1253 196.689 43.632C194.076 42.1387 191.089 41.392 187.729 41.392C184.369 41.392 181.345 42.1387 178.657 43.632C175.969 45.1253 173.841 47.2907 172.273 50.128C170.705 52.8907 169.921 56.2133 169.921 60.096C169.921 63.904 170.705 67.2267 172.273 70.064C173.841 72.9013 175.969 75.0667 178.657 76.56C181.345 78.0533 184.369 78.8 187.729 78.8Z" fill="white"/>
<path d="M233.038 90V11.6H248.046L281.422 66.928H273.47L306.286 11.6H321.182L321.406 90H304.382L304.27 37.696H307.406L281.198 81.712H273.022L246.254 37.696H250.062V90H233.038Z" fill="#5D76CC"/>
<path d="M223.742 55.28H330.702V60.88H223.742V55.28Z" fill="#5D76CC"/>
</svg>
